<svg width="125" height="125" viewBox="0 0 125 125" fill="none" xmlns="http://www.w3.org/2000/svg">
<path d="M83.3333 109.375V98.9583C83.3333 93.433 81.1384 88.134 77.2314 84.2269C73.3244 80.3199 68.0254 78.125 62.5 78.125H26.0417C20.5163 78.125 15.2173 80.3199 11.3103 84.2269C7.40328 88.134 5.20834 93.433 5.20834 98.9583V109.375M104.167 41.6667V72.9167M119.792 57.2917H88.5417M65.1042 36.4583C65.1042 47.9643 55.7768 57.2917 44.2708 57.2917C32.7649 57.2917 23.4375 47.9643 23.4375 36.4583C23.4375 24.9524 32.7649 15.625 44.2708 15.625C55.7768 15.625 65.1042 24.9524 65.1042 36.4583Z" stroke="white" stroke-width="4" stroke-linecap="round" stroke-linejoin="round"/>
<path d="M45 89L51.9282 77H38.0718L45 89Z" fill="white"/>
<path d="M45 80L51.0622 109.25H38.9378L45 80Z" fill="white"/>
<path d="M45 118L51.0622 109H38.9378L45 118Z" fill="white"/>
</svg>
