<svg width="125" height="126" viewBox="0 0 125 126" fill="none" xmlns="http://www.w3.org/2000/svg">
<path d="M83.3333 109.625V99.2083C83.3333 93.683 81.1384 88.384 77.2314 84.4769C73.3244 80.5699 68.0253 78.375 62.5 78.375H26.0416C20.5163 78.375 15.2173 80.5699 11.3103 84.4769C7.40325 88.384 5.20831 93.683 5.20831 99.2083V109.625M104.167 41.9167V73.1667M119.792 57.5417H88.5416M65.1041 36.7083C65.1041 48.2143 55.7767 57.5417 44.2708 57.5417C32.7649 57.5417 23.4375 48.2143 23.4375 36.7083C23.4375 25.2024 32.7649 15.875 44.2708 15.875C55.7767 15.875 65.1041 25.2024 65.1041 36.7083Z" stroke="white" stroke-width="4" stroke-linecap="round" stroke-linejoin="round"/>
</svg>
