<svg width="134" height="135" viewBox="0 0 134 135" fill="none" xmlns="http://www.w3.org/2000/svg">
<path d="M14.268 61.4519L51.6923 83.1005L89.1166 61.4519M51.6923 126.269V83.0577M90.274 100.205V65.9102C90.2725 64.4067 89.8756 62.9301 89.1232 61.6284C88.3708 60.3267 87.2893 59.2457 85.9872 58.494L55.9792 41.3465C54.6758 40.594 53.1973 40.1979 51.6923 40.1979C50.1873 40.1979 48.7088 40.594 47.4055 41.3465L17.3975 58.494C16.0954 59.2457 15.0139 60.3267 14.2615 61.6284C13.509 62.9301 13.1121 64.4067 13.1106 65.9102V100.205C13.1121 101.709 13.509 103.185 14.2615 104.487C15.0139 105.789 16.0954 106.87 17.3975 107.621L47.4055 124.769C48.7088 125.521 50.1873 125.917 51.6923 125.917C53.1973 125.917 54.6758 125.521 55.9792 124.769L85.9872 107.621C87.2893 106.87 88.3708 105.789 89.1232 104.487C89.8756 103.185 90.2725 101.709 90.274 100.205Z" stroke="white" stroke-width="4" stroke-linecap="round" stroke-linejoin="round"/>
<path d="M103.135 13.6106V49.6202M85.1299 31.6154H121.139" stroke="white" stroke-width="4" stroke-linecap="round" stroke-linejoin="round"/>
<line x1="31.8774" y1="49.6142" x2="71.0418" y2="72.7136" stroke="white" stroke-width="3"/>
</svg>
