<svg width="125" height="125" viewBox="0 0 125 125" fill="none" xmlns="http://www.w3.org/2000/svg">
<path d="M88.5417 109.375V98.9583C88.5417 93.433 86.3467 88.134 82.4397 84.2269C78.5327 80.3199 73.2337 78.125 67.7083 78.125H26.0417C20.5163 78.125 15.2173 80.3199 11.3103 84.2269C7.40328 88.134 5.20834 93.433 5.20834 98.9583V109.375M119.792 109.375V98.9583C119.788 94.3423 118.252 89.8582 115.424 86.21C112.596 82.5618 108.636 79.9561 104.167 78.8021M83.3333 16.3021C87.8147 17.4495 91.7867 20.0557 94.6231 23.71C97.4596 27.3642 98.9992 31.8585 98.9992 36.4844C98.9992 41.1103 97.4596 45.6046 94.6231 49.2588C91.7867 52.913 87.8147 55.5193 83.3333 56.6667M67.7083 36.4583C67.7083 47.9643 58.3809 57.2917 46.875 57.2917C35.3691 57.2917 26.0417 47.9643 26.0417 36.4583C26.0417 24.9524 35.3691 15.625 46.875 15.625C58.3809 15.625 67.7083 24.9524 67.7083 36.4583Z" stroke="white" stroke-width="4" stroke-linecap="round" stroke-linejoin="round"/>
<path d="M48 91L54.9282 79H41.0718L48 91Z" fill="white"/>
<path d="M48 82L54.0622 111.25H41.9378L48 82Z" fill="white"/>
<path d="M48 120L54.0622 111H41.9378L48 120Z" fill="white"/>
</svg>
