<svg width="126" height="126" viewBox="0 0 126 126" fill="none" xmlns="http://www.w3.org/2000/svg">
<path d="M15.875 31.5L31.5 10.6667H94L109.625 31.5M15.875 31.5V104.417C15.875 107.179 16.9725 109.829 18.926 111.782C20.8795 113.736 23.529 114.833 26.2917 114.833H99.2083C101.971 114.833 104.621 113.736 106.574 111.782C108.528 109.829 109.625 107.179 109.625 104.417V31.5M15.875 31.5H109.625M83.5833 52.3333C83.5833 57.8587 81.3884 63.1577 77.4814 67.0647C73.5744 70.9717 68.2753 73.1667 62.75 73.1667C57.2247 73.1667 51.9256 70.9717 48.0186 67.0647C44.1116 63.1577 41.9167 57.8587 41.9167 52.3333" stroke="white" stroke-width="4" stroke-linecap="round" stroke-linejoin="round"/>
</svg>
