<svg width="126" height="126" viewBox="0 0 126 126" fill="none" xmlns="http://www.w3.org/2000/svg">
<path d="M88.7917 109.625V99.2083C88.7917 93.683 86.5967 88.384 82.6897 84.4769C78.7827 80.5699 73.4837 78.375 67.9583 78.375H26.2917C20.7663 78.375 15.4673 80.5699 11.5603 84.4769C7.65328 88.384 5.45834 93.683 5.45834 99.2083V109.625M120.042 109.625V99.2083C120.038 94.5923 118.502 90.1082 115.674 86.46C112.846 82.8118 108.886 80.2061 104.417 79.0521M83.5833 16.5521C88.0647 17.6995 92.0367 20.3057 94.8731 23.96C97.7096 27.6142 99.2492 32.1085 99.2492 36.7344C99.2492 41.3603 97.7096 45.8546 94.8731 49.5088C92.0367 53.163 88.0647 55.7693 83.5833 56.9167M67.9583 36.7083C67.9583 48.2143 58.6309 57.5417 47.125 57.5417C35.6191 57.5417 26.2917 48.2143 26.2917 36.7083C26.2917 25.2024 35.6191 15.875 47.125 15.875C58.6309 15.875 67.9583 25.2024 67.9583 36.7083Z" stroke="white" stroke-width="4" stroke-linecap="round" stroke-linejoin="round"/>
</svg>
